<svg width="80" height="80" viewBox="0 0 80 80" fill="none" xmlns="http://www.w3.org/2000/svg">
<g clip-path="url(#clip0)">
<path d="M76.2595 45.7088C75.3463 44.8775 74.4414 44.1311 73.8406 43.6497L72.6981 37.8334C72.1291 34.1659 69.8326 30.95 66.5455 29.2232L61.9793 26.8242V22.7659H53.3519V21.315C53.3519 17.5475 50.2868 14.4824 46.5195 14.4824C42.7521 14.4824 39.687 17.5475 39.687 21.315V22.7659H0V66.9091H13.1027C13.5138 71.4657 17.3526 75.049 22.0144 75.049C26.6763 75.049 30.5151 71.4657 30.9261 66.9091H50.5527C50.9637 71.4657 54.8024 75.049 59.4642 75.049C64.1261 75.049 67.9649 71.4657 68.3759 66.9091H74.2535C77.4222 66.9091 80.0002 64.3313 80.0002 61.1626V51.2527C80 49.7344 78.9163 48.1281 76.2595 45.7088ZM64.3623 33.3787C66.3476 34.4218 67.7316 36.3682 68.0645 38.5859L68.8538 42.6095H61.9793V32.1268L64.3623 33.3787ZM44.3812 21.3151C44.3812 20.136 45.3405 19.1767 46.5197 19.1767C47.6987 19.1767 48.658 20.136 48.658 21.3151V22.7661H44.3812V21.3151ZM22.0144 70.355C19.6677 70.355 17.7585 68.4458 17.7585 66.0991C17.7585 63.7524 19.6677 61.8431 22.0144 61.8431C24.3611 61.8431 26.2704 63.7524 26.2704 66.0991C26.2704 68.4458 24.3611 70.355 22.0144 70.355ZM51.4018 62.2152H30.077C28.6282 59.2199 25.5588 57.149 22.0144 57.149C18.4701 57.149 15.4006 59.2199 13.9519 62.2152H4.69407V27.4601H57.2852V57.4186C54.6917 58.0699 52.5434 59.855 51.4018 62.2152ZM59.4642 70.355C57.1175 70.355 55.2084 68.4458 55.2084 66.0991C55.2084 63.7524 57.1175 61.8431 59.4642 61.8431C61.8109 61.8431 63.7202 63.7524 63.7202 66.0991C63.7202 68.4458 61.8109 70.355 59.4642 70.355ZM74.2535 62.2152H67.5268C66.4349 59.9578 64.4218 58.2279 61.9795 57.5113V47.3034H70.8991C72.9396 48.9253 74.8472 50.7546 75.3061 51.5393V53.6388H71.7693V58.3329H75.3061V61.1626C75.3059 61.7431 74.8339 62.2152 74.2535 62.2152Z" fill="#2FA6F8"/>
<path d="M38.1585 32.9639H24.1409V37.4373H19.6675V51.4549H24.1409V55.9284H38.1585V51.4549H42.6322V37.4373H38.1585V32.9639ZM37.9381 46.761H33.4645V51.2345H28.835V46.761H24.3616V42.1315H28.835V37.6581H33.4645V42.1315H37.9381V46.761Z" fill="#2FA6F8"/>
<path d="M36.6145 8.27441L39.9332 4.95571L44.382 9.40444L41.0632 12.7231L36.6145 8.27441Z" fill="#2FA6F8"/>
<path d="M48.6455 9.40625L53.0942 4.95752L56.4129 8.27623L51.9642 12.725L48.6455 9.40625Z" fill="#2FA6F8"/>
</g>
<defs>
<clipPath id="clip0">
<rect width="80" height="80" fill="white"/>
</clipPath>
</defs>
</svg>
