<svg width="30" height="30" viewBox="0 0 30 30" fill="none" xmlns="http://www.w3.org/2000/svg">
<path d="M29.81 18.8698L27.42 16.9548L24.71 9.75976C24.4992 9.16364 23.9373 8.76364 23.305 8.75976H22V8.25977C22 7.43133 21.3284 6.75977 20.5 6.75977C19.6716 6.75977 19 7.43133 19 8.25977V8.75976H0.5C0.223875 8.75976 0 8.98364 0 9.25976V23.2598C0 23.5359 0.223875 23.7598 0.5 23.7598H4.045C4.33087 25.3918 5.88569 26.483 7.51769 26.1971C8.76237 25.979 9.737 25.0045 9.955 23.7598H21.045C21.3309 25.3918 22.8857 26.483 24.5177 26.1971C25.7624 25.979 26.737 25.0045 26.955 23.7598H29.5C29.7761 23.7598 30 23.5359 30 23.2598V19.2598C29.9993 19.1076 29.9294 18.9641 29.81 18.8698ZM24.405 11.7598L26.28 16.7598H21.31C21.1388 16.7598 21 16.621 21 16.4498V12.0698C21 11.8986 21.1388 11.7598 21.31 11.7598H24.405ZM20 8.25977C20 7.98364 20.2239 7.75977 20.5 7.75977C20.7761 7.75977 21 7.98364 21 8.25977V8.75976H20V8.25977ZM7 25.2598C5.89544 25.2598 5 24.3643 5 23.2598C5 22.1552 5.89544 21.2598 7 21.2598C8.10456 21.2598 9 22.1552 9 23.2598C9 24.3643 8.10456 25.2598 7 25.2598ZM24 25.2598C22.8954 25.2598 22 24.3643 22 23.2598C22 22.1552 22.8954 21.2598 24 21.2598C25.1046 21.2598 26 22.1552 26 23.2598C26 24.3643 25.1046 25.2598 24 25.2598ZM29 20.7598H27.5V21.7598H29V22.7598H26.955C26.6691 21.1278 25.1143 20.0365 23.4823 20.3225C22.2376 20.5405 21.263 21.5151 21.045 22.7598H9.955C9.66912 21.1278 8.11431 20.0365 6.48231 20.3225C5.23763 20.5405 4.263 21.5151 4.045 22.7598H1V21.7598H3.5V20.7598H1V17.7598H19V16.7598H1V9.75976H23.305C23.5142 9.75908 23.7017 9.88877 23.775 10.0848L24.03 10.7598H21.31C20.5876 10.7625 20.0028 11.3474 20 12.0698V16.4498C20.0028 17.1721 20.5876 17.757 21.31 17.7598H26.81L29 19.4998V20.7598Z" fill="white"/>
<path d="M20.5 20.7598H10.5V21.7598H20.5V20.7598Z" fill="white"/>
<path d="M7.5 22.7598H6.5V23.7598H7.5V22.7598Z" fill="white"/>
<path d="M24.5 22.7598H23.5V23.7598H24.5V22.7598Z" fill="white"/>
<path d="M7.2002 11.3598L6.0002 12.2598V10.7598H5.0002V12.2598L3.8002 11.3598L3.2002 12.1598L4.6652 13.2598L3.2002 14.3598L3.8002 15.1598L5.0002 14.2598V15.7598H6.0002V14.2598L7.2002 15.1598L7.8002 14.3598L6.3352 13.2598L7.8002 12.1598L7.2002 11.3598Z" fill="white"/>
<path d="M21 3.75977H20V5.75977H21V3.75977Z" fill="white"/>
<path d="M18.8531 5.90335L17.354 4.4043L16.6469 5.1114L18.146 6.61045L18.8531 5.90335Z" fill="white"/>
<path d="M24.3521 5.11335L23.645 4.40625L22.146 5.9053L22.8531 6.6124L24.3521 5.11335Z" fill="white"/>
<path d="M19 11.9598C18.9973 11.2981 18.4616 10.7625 17.8 10.7598H15.2C14.5384 10.7625 14.0028 11.2981 14 11.9598V14.5598C14.0028 15.2214 14.5384 15.757 15.2 15.7598H17.8C18.4616 15.757 18.9973 15.2214 19 14.5598V11.9598ZM18 11.9598V14.5598C18 14.6702 17.9104 14.7598 17.8 14.7598H15.2C15.0896 14.7598 15 14.6702 15 14.5598V11.9598C15 11.8493 15.0896 11.7598 15.2 11.7598H17.8C17.9104 11.7598 18 11.8493 18 11.9598Z" fill="white"/>
<path d="M7.5 4.75977H0V5.75977H7.5V4.75977Z" fill="white"/>
<path d="M9 6.75977H4.5V7.75976H9V6.75977Z" fill="white"/>
<path d="M3 6.75977H1.5V7.75976H3V6.75977Z" fill="white"/>
</svg>
