<svg width="80" height="80" viewBox="0 0 80 80" fill="none" xmlns="http://www.w3.org/2000/svg">
<path d="M60 8.75H62.5V11.25H60V8.75Z" fill="#2FA6F8"/>
<path d="M55 8.75H57.5V11.25H55V8.75Z" fill="#2FA6F8"/>
<path d="M60 25.05V17.5H61.25C62.0708 17.5 62.8835 17.3383 63.6418 17.0242C64.4001 16.7102 65.0891 16.2498 65.6694 15.6694C66.2498 15.0891 66.7102 14.4001 67.0242 13.6418C67.3383 12.8835 67.5 12.0708 67.5 11.25V8.75C67.5 7.0924 66.8415 5.50269 65.6694 4.33058C64.4973 3.15848 62.9076 2.5 61.25 2.5H36.25C34.5924 2.5 33.0027 3.15848 31.8306 4.33058C30.6585 5.50269 30 7.0924 30 8.75V11.25C30 12.9076 30.6585 14.4973 31.8306 15.6694C33.0027 16.8415 34.5924 17.5 36.25 17.5H37.5V23.8C29.425 24.525 23.6875 32.1625 21.3125 40H3.75C3.41848 40 3.10054 40.1317 2.86612 40.3661C2.6317 40.6005 2.5 40.9185 2.5 41.25V46.25C2.5 46.5815 2.6317 46.8995 2.86612 47.1339C3.10054 47.3683 3.41848 47.5 3.75 47.5H6.25V71.25C6.25 72.9076 6.90848 74.4973 8.08058 75.6694C9.25269 76.8415 10.8424 77.5 12.5 77.5H30C31.1194 77.4959 32.2171 77.1909 33.1781 76.6169C34.1391 76.0429 34.9281 75.2211 35.4625 74.2375C39.8436 76.5244 44.7405 77.6429 49.68 77.4849C54.6196 77.3269 59.435 75.8978 63.661 73.3355C67.887 70.7733 71.3808 67.1645 73.805 62.8578C76.2292 58.5512 77.5019 53.6921 77.5 48.75C77.5 36.4125 69.6125 25.9 60 25.05ZM36.25 15C35.2564 14.997 34.3042 14.601 33.6016 13.8984C32.899 13.1958 32.503 12.2436 32.5 11.25V8.75C32.503 7.75635 32.899 6.80425 33.6016 6.10163C34.3042 5.39901 35.2564 5.00297 36.25 5H61.25C62.2436 5.00297 63.1958 5.39901 63.8984 6.10163C64.601 6.80425 64.997 7.75635 65 8.75V11.25C64.997 12.2436 64.601 13.1958 63.8984 13.8984C63.1958 14.601 62.2436 14.997 61.25 15H36.25ZM33.75 71.25C33.747 72.2437 33.351 73.1958 32.6484 73.8984C31.9458 74.601 30.9936 74.997 30 75H12.5C11.5064 74.997 10.5542 74.601 9.85163 73.8984C9.14901 73.1958 8.75297 72.2437 8.75 71.25V47.5H33.75V71.25ZM5 45V42.5H37.5V45H5ZM48.75 75C44.363 75.0022 40.0464 73.8973 36.2 71.7875C36.2125 71.6125 36.25 71.4375 36.25 71.25V52.35C40.7411 52.875 45.2855 52.0159 49.275 49.8875C52.1884 48.3231 55.4432 47.503 58.75 47.5C61.6342 47.3797 64.4799 48.1953 66.8625 49.825C69.1926 51.3958 71.9062 52.3032 74.7125 52.45C73.8167 58.7011 70.6998 64.4205 65.9321 68.5616C61.1644 72.7026 55.0649 74.9882 48.75 75ZM68.1375 47.675C65.3729 45.8067 62.0841 44.8695 58.75 45C55.0808 44.997 51.4669 45.894 48.225 47.6125C45.3116 49.1769 42.0568 49.997 38.75 50C37.9138 49.9955 37.0787 49.937 36.25 49.825V47.5H38.75C39.0815 47.5 39.3995 47.3683 39.6339 47.1339C39.8683 46.8995 40 46.5815 40 46.25V41.25C40 40.9185 39.8683 40.6005 39.6339 40.3661C39.3995 40.1317 39.0815 40 38.75 40H23.9375C26.275 32.925 31.55 26.25 38.75 26.25C39.0815 26.25 39.3995 26.1183 39.6339 25.8839C39.8683 25.6495 40 25.3315 40 25V17.5H57.5V26.25C57.5 26.5815 57.6317 26.8995 57.8661 27.1339C58.1005 27.3683 58.4185 27.5 58.75 27.5C67.5625 27.5 75 37.2375 75 48.75C75 49.1625 74.9625 49.55 74.9375 49.95C72.5033 49.8392 70.1483 49.0514 68.1375 47.675Z" fill="#2FA6F8"/>
<path d="M45 35H52.5V37.5H45V35Z" fill="#2FA6F8"/>
<path d="M45 40H52.5V42.5H45V40Z" fill="#2FA6F8"/>
<path d="M45 25H52.5V27.5H45V25Z" fill="#2FA6F8"/>
<path d="M45 30H52.5V32.5H45V30Z" fill="#2FA6F8"/>
<path d="M26.25 50H31.25V52.5H26.25V50Z" fill="#2FA6F8"/>
<path d="M23.75 55H31.25V57.5H23.75V55Z" fill="#2FA6F8"/>
<path d="M26.25 60H31.25V62.5H26.25V60Z" fill="#2FA6F8"/>
<path d="M26.25 70H31.25V72.5H26.25V70Z" fill="#2FA6F8"/>
<path d="M23.75 65H31.25V67.5H23.75V65Z" fill="#2FA6F8"/>
<path d="M7.5 31.25C8.48891 31.25 9.45561 30.9568 10.2779 30.4074C11.1001 29.8579 11.741 29.077 12.1194 28.1634C12.4978 27.2498 12.5969 26.2445 12.4039 25.2746C12.211 24.3046 11.7348 23.4137 11.0355 22.7145C10.3363 22.0152 9.44536 21.539 8.47545 21.3461C7.50555 21.1531 6.50021 21.2522 5.58658 21.6306C4.67295 22.009 3.89206 22.6499 3.34265 23.4722C2.79324 24.2944 2.5 25.2611 2.5 26.25C2.5 27.5761 3.02678 28.8479 3.96447 29.7855C4.90215 30.7232 6.17392 31.25 7.5 31.25ZM7.5 23.75C7.99445 23.75 8.4778 23.8966 8.88893 24.1713C9.30005 24.446 9.62048 24.8365 9.8097 25.2933C9.99892 25.7501 10.0484 26.2528 9.95196 26.7377C9.8555 27.2227 9.6174 27.6681 9.26777 28.0178C8.91814 28.3674 8.47268 28.6055 7.98773 28.702C7.50277 28.7984 7.00011 28.7489 6.54329 28.5597C6.08648 28.3705 5.69603 28.0501 5.42133 27.6389C5.14662 27.2278 5 26.7445 5 26.25C5 25.587 5.26339 24.9511 5.73223 24.4822C6.20107 24.0134 6.83696 23.75 7.5 23.75Z" fill="#2FA6F8"/>
<path d="M16.25 37.5C16.9917 37.5 17.7167 37.2801 18.3334 36.868C18.9501 36.456 19.4307 35.8703 19.7145 35.1851C19.9984 34.4998 20.0726 33.7458 19.9279 33.0184C19.7832 32.291 19.4261 31.6228 18.9016 31.0984C18.3772 30.5739 17.709 30.2168 16.9816 30.0721C16.2542 29.9274 15.5002 30.0016 14.8149 30.2855C14.1297 30.5693 13.544 31.0499 13.132 31.6666C12.7199 32.2833 12.5 33.0083 12.5 33.75C12.5 34.7446 12.8951 35.6984 13.5983 36.4017C14.3016 37.1049 15.2554 37.5 16.25 37.5ZM16.25 32.5C16.4972 32.5 16.7389 32.5733 16.9445 32.7107C17.15 32.848 17.3102 33.0432 17.4048 33.2716C17.4995 33.5001 17.5242 33.7514 17.476 33.9939C17.4277 34.2363 17.3087 34.4591 17.1339 34.6339C16.9591 34.8087 16.7363 34.9278 16.4939 34.976C16.2514 35.0242 16.0001 34.9995 15.7716 34.9049C15.5432 34.8102 15.348 34.65 15.2107 34.4445C15.0733 34.2389 15 33.9972 15 33.75C15 33.4185 15.1317 33.1005 15.3661 32.8661C15.6005 32.6317 15.9185 32.5 16.25 32.5Z" fill="#2FA6F8"/>
<path d="M21.25 28.75C22.2389 28.75 23.2056 28.4568 24.0279 27.9074C24.8501 27.3579 25.491 26.577 25.8694 25.6634C26.2478 24.7498 26.3469 23.7445 26.1539 22.7746C25.961 21.8046 25.4848 20.9137 24.7855 20.2145C24.0863 19.5152 23.1954 19.039 22.2255 18.8461C21.2555 18.6531 20.2502 18.7522 19.3366 19.1306C18.423 19.509 17.6421 20.1499 17.0927 20.9722C16.5432 21.7944 16.25 22.7611 16.25 23.75C16.25 25.0761 16.7768 26.3479 17.7145 27.2855C18.6521 28.2232 19.9239 28.75 21.25 28.75ZM21.25 21.25C21.7445 21.25 22.2278 21.3966 22.6389 21.6713C23.05 21.946 23.3705 22.3365 23.5597 22.7933C23.7489 23.2501 23.7984 23.7528 23.702 24.2377C23.6055 24.7227 23.3674 25.1681 23.0178 25.5178C22.6681 25.8674 22.2227 26.1055 21.7377 26.202C21.2528 26.2984 20.7501 26.2489 20.2933 26.0597C19.8365 25.8705 19.446 25.5501 19.1713 25.1389C18.8966 24.7278 18.75 24.2445 18.75 23.75C18.75 23.087 19.0134 22.4511 19.4822 21.9822C19.9511 21.5134 20.587 21.25 21.25 21.25Z" fill="#2FA6F8"/>
</svg>
