<svg width="24" height="24" viewBox="0 0 24 24" fill="none" xmlns="http://www.w3.org/2000/svg">
<path d="M0.50114 4.46044C3.79505 7.25002 9.57483 12.1577 11.2736 13.688C11.5016 13.8945 11.7462 13.9995 12.0001 13.9995C12.2535 13.9995 12.4977 13.8955 12.7253 13.6899C14.4255 12.1582 20.2052 7.25002 23.4992 4.46044C23.7043 4.28709 23.7355 3.98241 23.5695 3.77048C23.1857 3.28078 22.6134 3 22.0001 3H2.00016C1.38689 3 0.814593 3.28078 0.430828 3.77053C0.264796 3.98241 0.296062 4.28709 0.50114 4.46044Z" fill="#2FA6F8"/>
<path d="M23.71 5.9724C23.5328 5.8899 23.3243 5.91868 23.1768 6.04468C21.0196 7.87327 18.1773 10.2893 16.0337 12.133C15.921 12.2297 15.8575 12.3718 15.8599 12.5207C15.8624 12.6692 15.9312 12.8093 16.0474 12.9021C18.0392 14.4973 21.0406 16.6916 23.2081 18.2512C23.2945 18.3137 23.397 18.3454 23.5001 18.3454C23.5782 18.3454 23.6563 18.3274 23.7281 18.2903C23.8951 18.2048 24.0001 18.0329 24.0001 17.8454V6.42601C24 6.23119 23.8867 6.05396 23.71 5.9724Z" fill="#2FA6F8"/>
<path d="M0.792 18.2508C2.95997 16.6912 5.96194 14.4969 7.95314 12.9016C8.06934 12.8089 8.1382 12.6687 8.14064 12.5203C8.14308 12.3714 8.07961 12.2293 7.96683 12.1326C5.82323 10.2889 2.98045 7.87284 0.823266 6.04425C0.674812 5.91825 0.465844 5.89045 0.290063 5.97196C0.113297 6.05353 0 6.23076 0 6.42557V17.845C0 18.0325 0.105 18.2044 0.271969 18.2899C0.343734 18.327 0.421875 18.345 0.500016 18.345C0.603047 18.345 0.705562 18.3133 0.792 18.2508Z" fill="#2FA6F8"/>
<path d="M23.3873 19.6108C21.294 18.1132 17.438 15.3213 15.1363 13.4531C14.9488 13.3002 14.6773 13.3051 14.4927 13.4643C14.0411 13.8583 13.6631 14.1904 13.3951 14.4316C12.5718 15.1747 11.4292 15.1747 10.604 14.4306C10.3369 14.1899 9.95904 13.8568 9.50735 13.4643C9.32426 13.3041 9.05229 13.2992 8.86427 13.453C6.5703 15.3148 2.70996 18.1102 0.613289 19.6107C0.49657 19.6947 0.421382 19.8241 0.406757 19.9672C0.392601 20.1102 0.439945 20.2523 0.538101 20.3578C0.91657 20.7656 1.44977 20.9995 2.00009 20.9995H22.0001C22.5504 20.9995 23.0831 20.7656 23.4625 20.3578C23.5601 20.2528 23.608 20.1108 23.5939 19.9677C23.5792 19.8247 23.504 19.6948 23.3873 19.6108Z" fill="#2FA6F8"/>
</svg>
