<svg width="107" height="107" viewBox="0 0 107 107" fill="none" xmlns="http://www.w3.org/2000/svg">
<circle cx="53.5" cy="53.5" r="53" stroke="#54CDD5" stroke-dasharray="2 2"/>
<circle cx="20" cy="95" r="4" fill="#54CDD5"/>
<circle cx="86" cy="12" r="4" fill="#54CDD5"/>
<g clip-path="url(#clip0)">
<path d="M47.6523 41.6719C48.1917 41.6719 48.6289 41.2347 48.6289 40.6953C48.6289 40.156 48.1917 39.7188 47.6523 39.7188C47.113 39.7188 46.6758 40.156 46.6758 40.6953C46.6758 41.2347 47.113 41.6719 47.6523 41.6719Z" fill="#54CDD5"/>
<path d="M58.0967 39.1748C58.636 39.1748 59.0732 38.7376 59.0732 38.1982C59.0732 37.6589 58.636 37.2217 58.0967 37.2217C57.5573 37.2217 57.1201 37.6589 57.1201 38.1982C57.1201 38.7376 57.5573 39.1748 58.0967 39.1748Z" fill="#54CDD5"/>
<path d="M73.5312 54.9531C73.5312 51.1231 71.3146 47.8018 68.0974 46.2025C67.4295 44.9049 66.6112 43.6824 65.6641 42.5674C64.7207 41.457 63.6514 40.4541 62.4844 39.5869C62.3145 39.4609 62.1133 39.3936 61.9023 39.3936C61.5947 39.3936 61.3018 39.541 61.1182 39.7871C60.9619 39.9961 60.8975 40.2539 60.9355 40.5117C60.9736 40.7705 61.1094 40.998 61.3184 41.1533C62.9032 42.333 64.245 43.739 65.3142 45.3107C64.8097 45.23 64.2926 45.1875 63.7656 45.1875C61.1488 45.1875 58.7693 46.2223 57.0143 47.9038C56.7141 47.5063 56.3858 47.1281 56.0293 46.7715C55.043 45.7852 53.8945 45.0107 52.6152 44.4697C51.291 43.9092 49.8838 43.625 48.4336 43.625H47.6523C46.9023 43.623 46.2178 43.3389 45.6992 42.8721C45.1016 42.3359 44.7246 41.5586 44.7227 40.6953C44.7246 39.832 45.1016 39.0547 45.6992 38.5186C46.2178 38.0518 46.9023 37.7676 47.6523 37.7656H51.0703C51.9619 37.7656 52.8564 37.834 53.7305 37.9697C54.0098 38.0127 54.2969 37.9316 54.5127 37.749C54.6904 37.5977 54.8086 37.3867 54.8447 37.1553C54.8848 36.8975 54.8223 36.6387 54.668 36.4287C54.5146 36.2178 54.2881 36.0801 54.0303 36.04C53.0586 35.8887 52.0625 35.8125 51.0703 35.8125H47.6523V32.8828C47.6523 32.3438 47.2148 31.9062 46.6758 31.9062H46.1875V28.9766C46.1875 28.4373 45.7503 28 45.2109 28H41.3047C40.7653 28 40.3281 28.4373 40.3281 28.9766V31.9062H39.8398C39.3008 31.9062 38.8633 32.3438 38.8633 32.8828V48.5039C38.8633 48.5039 38.9233 48.845 38.9255 48.8507L40.3903 52.7569C40.5332 53.1381 40.8977 53.3906 41.3047 53.3906H45.2109C45.618 53.3906 45.9824 53.1381 46.1253 52.757L47.5901 48.8508C47.5923 48.845 47.6523 48.5039 47.6523 48.5038V45.5781H48.4336C50.7803 45.5781 52.9873 46.4932 54.6484 48.1523C55.0467 48.5511 55.4009 48.9818 55.711 49.4378C54.6323 51.0082 54 52.9081 54 54.9531C54 56.7313 54.478 58.3999 55.3119 59.8376C55.1059 60.0959 54.8854 60.3449 54.6484 60.5821C52.9873 62.2412 50.7803 63.1562 48.4336 63.1562H48.1406V61.2031H49.6055C50.1448 61.2031 50.582 60.7658 50.582 60.2266V56.3203C50.582 55.7811 50.1448 55.3438 49.6055 55.3438H36.9102C36.3708 55.3438 35.9336 55.7811 35.9336 56.3203V60.2266C35.9336 60.7658 36.3708 61.2031 36.9102 61.2031H38.375V72.2389C36.1489 72.6926 34.4688 74.6654 34.4688 77.0234C34.4688 77.5627 34.906 78 35.4453 78H61.4219C61.9612 78 62.3984 77.5627 62.3984 77.0234C62.3984 74.8168 60.9268 72.9483 58.9137 72.3456C59.8622 71.9112 60.7801 71.3988 61.6484 70.8164C62.6719 70.1309 63.6348 69.3438 64.5107 68.4766C65.3887 67.6094 66.1855 66.6562 66.8799 65.6436C67.2998 65.031 67.6839 64.3931 68.0298 63.7373C71.2837 62.1513 73.5312 58.81 73.5312 54.9531ZM44.2002 37.2432C43.751 37.6914 43.3994 38.2129 43.1533 38.7949C42.8984 39.3965 42.7695 40.0361 42.7695 40.6953C42.7695 41.3545 42.8984 41.9941 43.1533 42.5957C43.3994 43.1777 43.751 43.6992 44.2002 44.1484C44.6348 44.583 45.1387 44.9268 45.6992 45.1709V47.5312H40.8164V33.8594H45.6992V36.2197C45.1387 36.4639 44.6348 36.8076 44.2002 37.2432ZM42.2812 29.9531H44.2344V31.9062H42.2812V29.9531ZM44.5342 51.4375H41.9814L41.249 49.4844H45.2666L44.5342 51.4375ZM37.8867 57.2969H48.6289V59.25H37.8867V57.2969ZM60.278 76.0469H36.5892C36.9922 74.9101 38.0783 74.0938 39.3516 74.0938H57.5156C58.7889 74.0938 59.8749 74.9101 60.278 76.0469ZM63.1377 67.0879C59.8408 70.3457 55.5 72.1406 50.915 72.1406H40.3281V61.2031H46.1875V64.1328C46.1875 64.3896 46.292 64.6416 46.4736 64.8232C46.6553 65.0049 46.9072 65.1094 47.1641 65.1094H48.4336C49.8838 65.1094 51.291 64.8252 52.6152 64.2646C53.8945 63.7236 55.043 62.9492 56.0293 61.9629C56.1905 61.8017 56.3458 61.6357 56.4956 61.466C58.2849 63.4612 60.881 64.7188 63.7656 64.7188C64.2603 64.7188 64.7464 64.6814 65.2215 64.6102C64.6119 65.4869 63.9171 66.317 63.1377 67.0879ZM63.7656 62.7656C59.4578 62.7656 55.9531 59.2609 55.9531 54.9531C55.9531 50.6453 59.4578 47.1406 63.7656 47.1406C68.0734 47.1406 71.5781 50.6453 71.5781 54.9531C71.5781 59.2609 68.0734 62.7656 63.7656 62.7656Z" fill="#54CDD5"/>
<path d="M63.7656 50.0703C61.0732 50.0703 58.8828 52.2607 58.8828 54.9531C58.8828 57.6455 61.0732 59.8359 63.7656 59.8359C66.458 59.8359 68.6484 57.6455 68.6484 54.9531C68.6484 52.2607 66.458 50.0703 63.7656 50.0703ZM63.7656 57.8828C62.1502 57.8828 60.8359 56.5686 60.8359 54.9531C60.8359 53.3377 62.1502 52.0234 63.7656 52.0234C65.3811 52.0234 66.6953 53.3377 66.6953 54.9531C66.6953 56.5686 65.3811 57.8828 63.7656 57.8828Z" fill="#54CDD5"/>
</g>
<defs>
<clipPath id="clip0">
<rect width="50" height="50" fill="white" transform="translate(29 28)"/>
</clipPath>
</defs>
</svg>
