<svg width="107" height="107" viewBox="0 0 107 107" fill="none" xmlns="http://www.w3.org/2000/svg">
<circle cx="53.5" cy="53.5" r="53" stroke="#54CDD5" stroke-dasharray="1 1"/>
<circle cx="20" cy="95" r="4" fill="#54CDD5"/>
<circle cx="86" cy="12" r="4" fill="#54CDD5"/>
<path d="M78.0234 37.0253H63.4486C59.4748 37.0253 56.0525 39.7001 55.1263 43.5299C55.1258 43.5317 55.1254 43.5335 55.1249 43.5354L54.9765 44.1646V39.1534C57.1749 38.6833 58.8275 36.7398 58.8275 34.4207C58.8275 31.7513 56.6381 29.5796 53.9469 29.5796C51.2557 29.5796 49.0664 31.7514 49.0664 34.4208C49.0664 36.7771 50.7723 38.7456 53.0234 39.175V44.1646L52.875 43.5354C52.8745 43.5335 52.8741 43.5317 52.8736 43.5299C51.9475 39.7001 48.5252 37.0253 44.5513 37.0253H29.9766C29.4372 37.0253 29 37.4625 29 38.0019V38.7989C29 40.7185 30.0889 42.3902 31.6864 43.2387V43.652C31.6864 45.5713 32.7755 47.2432 34.3728 48.0917V48.505C34.3728 51.28 36.649 53.5376 39.4468 53.5376H53.0234V56.6181H47.9969C46.046 56.6181 44.4588 58.2073 44.4588 60.1608C44.4588 62.1144 46.046 63.7036 47.9969 63.7036H53.0234V66.8374H48.1835C46.4673 66.8374 45.0711 68.2354 45.0711 69.9538C45.0711 71.6723 46.4673 73.0702 48.1835 73.0702H53.0234V75.4444C53.0234 75.9838 53.4606 76.421 54 76.421C54.5393 76.421 54.9766 75.9838 54.9766 75.4444V73.0702H62.6705C63.2098 73.0702 63.6471 72.633 63.6471 72.0937C63.6471 71.5543 63.2098 71.1171 62.6705 71.1171H54.9766V68.7906H60.1317C62.0701 68.7906 63.6471 67.2115 63.6471 65.2706C63.6471 63.3297 62.0701 61.7506 60.1317 61.7506H54.9766V58.5713H60.1583C62.0819 58.5713 63.6471 57.0042 63.6471 55.0779C63.6471 54.5219 63.5198 54 63.2914 53.5377H68.5532C71.351 53.5377 73.6272 51.2801 73.6272 48.5051V48.0918C75.2244 47.2433 76.3136 45.5714 76.3136 43.6521V43.2388C77.9111 42.3902 79 40.7184 79 38.7989V38.0019C79 37.4625 78.5627 37.0253 78.0234 37.0253V37.0253ZM51.0195 34.4208C51.0195 32.8283 52.3327 31.5328 53.947 31.5328C55.5612 31.5328 56.8745 32.8284 56.8745 34.4208C56.8745 36.0132 55.5612 37.3088 53.947 37.3088C52.3327 37.3088 51.0195 36.0132 51.0195 34.4208V34.4208ZM39.4468 51.5846C37.7869 51.5846 36.4255 50.2995 36.3312 48.6846H43.1548C43.694 48.6846 44.1313 48.2474 44.1313 47.708C44.1313 47.1687 43.694 46.7314 43.1548 46.7314H36.7604C35.1006 46.7314 33.7393 45.4463 33.6448 43.8314H33.9935C34.0109 43.8324 34.0285 43.8329 34.0463 43.8329H43.0635C43.6027 43.8329 44.04 43.3957 44.04 42.8563C44.04 42.317 43.6027 41.8798 43.0635 41.8798H34.127C34.1095 41.8789 34.0919 41.8783 34.0741 41.8783C32.4143 41.8783 31.0528 40.5933 30.9585 38.9784H44.5515C47.6193 38.9784 50.2603 41.0374 50.9747 43.9861L52.7665 51.5846H39.4468ZM53.0234 71.1171H48.1835C47.5442 71.1171 47.0242 70.5952 47.0242 69.9538C47.0242 69.3124 47.5442 68.7905 48.1835 68.7905H53.0234V71.1171ZM60.1317 63.7037C60.9932 63.7037 61.6939 64.4066 61.6939 65.2706C61.6939 66.1346 60.9932 66.8375 60.1317 66.8375H54.9766V63.7037H60.1317ZM53.0234 61.7506H47.9969C47.1229 61.7506 46.4119 61.0375 46.4119 60.1609C46.4119 59.2844 47.1229 58.5713 47.9969 58.5713H53.0234V61.7506ZM61.6939 55.0779C61.6939 55.9272 61.0051 56.6182 60.1583 56.6182H54.9766V53.5377H60.0524C60.9883 53.5377 61.6939 54.1998 61.6939 55.0779ZM73.926 41.8783C73.9083 41.8783 73.8906 41.8788 73.8732 41.8798H69.1889C68.6496 41.8798 68.2123 42.317 68.2123 42.8563C68.2123 43.3957 68.6496 43.8329 69.1889 43.8329H74.3552C74.2601 45.4471 72.899 46.7314 71.2396 46.7314H64.8453C64.3061 46.7314 63.8687 47.1687 63.8687 47.708C63.8687 48.2474 64.3061 48.6846 64.8453 48.6846H71.6689C71.5745 50.2995 70.2132 51.5846 68.5533 51.5846H55.2336L57.0254 43.9861C57.7398 41.0374 60.3808 38.9784 63.4486 38.9784H77.0416C76.9472 40.5933 75.5858 41.8783 73.926 41.8783V41.8783Z" fill="#54CDD5"/>
<path d="M64.2139 43.6683C64.5591 43.8984 65.0205 43.8815 65.3504 43.6313C65.6701 43.3888 65.8072 42.9558 65.6905 42.5726C65.5724 42.1846 65.2143 41.9026 64.8088 41.8812C64.399 41.8596 64.012 42.1043 63.8547 42.4828C63.679 42.9051 63.8293 43.4166 64.2139 43.6683Z" fill="#54CDD5"/>
</svg>
