<svg width="107" height="107" viewBox="0 0 107 107" fill="none" xmlns="http://www.w3.org/2000/svg">
<circle cx="53.5" cy="53.5" r="53" stroke="#54CDD5" stroke-dasharray="2 2"/>
<circle cx="20" cy="95" r="4" fill="#54CDD5"/>
<circle cx="86" cy="12" r="4" fill="#54CDD5"/>
<g clip-path="url(#clip0)">
<path d="M68.6483 48.1172C68.3059 48.1172 67.9774 48.1768 67.6718 48.2852V41.2813C67.6718 38.841 65.8722 36.8131 63.5305 36.4548L61.7704 30.6465C61.0727 28.3438 59.6616 28 58.8826 28H45.211C44.432 28 43.021 28.3438 42.3233 30.6465L40.5632 36.4548C38.2214 36.8131 36.4219 38.8411 36.4219 41.2814V64.7188C36.4219 67.1591 38.2214 69.187 40.5632 69.5453L42.3233 75.3536C43.0211 77.6563 44.432 78.0001 45.211 78.0001H58.8826C59.6616 78.0001 61.0726 77.6562 61.7703 75.3536L63.5304 69.5453C65.8721 69.187 67.6717 67.1591 67.6717 64.7188V57.7148C67.9773 57.8232 68.3059 57.8828 68.6482 57.8828C70.2636 57.8828 71.5779 56.5685 71.5779 54.9531V51.0469C71.578 49.4315 70.2637 48.1172 68.6483 48.1172ZM59.9012 74.7871C59.5194 76.0469 59.0401 76.0469 58.8826 76.0469H45.211C45.0535 76.0469 44.5742 76.0469 44.1925 74.7871L42.621 69.6015H61.4726L59.9012 74.7871ZM65.7186 64.7187C65.7186 66.3341 64.4044 67.6484 62.789 67.6484H62.7859C62.7834 67.6484 62.7809 67.6484 62.7783 67.6484H41.3176C41.3134 67.6483 41.3091 67.6484 41.3049 67.6484H41.3047C39.6892 67.6484 38.375 66.3341 38.375 64.7187V41.2813C38.375 39.6673 39.6869 38.3542 41.3003 38.3518C41.3018 38.3518 41.3035 38.352 41.3051 38.352C41.3074 38.352 41.3097 38.3517 41.3121 38.3517H47.652C48.1914 38.3517 48.6286 37.9145 48.6286 37.3752C48.6286 36.8358 48.1914 36.3986 47.652 36.3986H42.621L44.1925 31.2129C44.5742 29.9531 45.0535 29.9531 45.211 29.9531H58.8826C59.0401 29.9531 59.5194 29.9531 59.9012 31.2129L61.4726 36.3986H56.4409C55.9016 36.3986 55.4644 36.8358 55.4644 37.3752C55.4644 37.9145 55.9016 38.3517 56.4409 38.3517H62.7782H62.7858H62.7889C64.4043 38.3517 65.7185 39.666 65.7185 41.2814V64.7187H65.7186ZM69.6249 54.9531C69.6249 55.4916 69.1868 55.9297 68.6483 55.9297C68.1098 55.9297 67.6718 55.4916 67.6718 54.9531V51.0469C67.6718 50.5084 68.1098 50.0703 68.6483 50.0703C69.1868 50.0703 69.6249 50.5084 69.6249 51.0469V54.9531Z" fill="#54CDD5"/>
<path d="M62.2715 48.7668H60.2975C60.3457 48.6227 60.3897 48.4773 60.4289 48.331C60.9446 46.4031 60.5208 44.6901 59.2034 43.3768C57.3189 41.4982 54.2525 41.4982 52.368 43.3768C52.1475 43.5966 51.8805 43.5311 51.7257 43.3768C49.8412 41.4982 46.7747 41.4981 44.8902 43.3768C43.5728 44.6901 43.149 46.4031 43.6647 48.331C43.7039 48.4774 43.7479 48.6227 43.7963 48.7668H41.8223C41.2829 48.7668 40.8457 49.204 40.8457 49.7434C40.8457 50.2827 41.2829 50.7199 41.8223 50.7199H44.7239C45.5461 52.0715 46.5884 53.1943 47.2858 53.8715C48.858 55.3982 50.6279 56.586 51.7949 56.8978C51.8774 56.9198 51.9622 56.9309 52.047 56.9309C52.1317 56.9309 52.2164 56.9198 52.299 56.8978C53.466 56.586 55.2359 55.3982 56.8081 53.8715C57.5056 53.1943 58.5478 52.0715 59.37 50.7199H62.2717C62.811 50.7199 63.2482 50.2827 63.2482 49.7434C63.2482 49.204 62.8108 48.7668 62.2715 48.7668ZM45.5516 47.8263C45.2175 46.5774 45.4521 45.5744 46.2691 44.7601C46.8313 44.1997 47.5696 43.9195 48.308 43.9195C49.0464 43.9195 49.7849 44.1998 50.3469 44.7601C51.3001 45.7103 52.7935 45.7103 53.7468 44.7601C54.871 43.6394 56.7003 43.6394 57.8245 44.7601C58.6415 45.5744 58.8763 46.5775 58.5421 47.8263C58.4585 48.1389 58.3421 48.4533 58.201 48.7669H54.6067C54.3075 48.7669 54.0248 48.9041 53.8396 49.1393L53.3661 49.7403L50.6279 47.0021C50.4448 46.819 50.1964 46.716 49.9374 46.716C49.6784 46.716 49.43 46.819 49.2469 47.0021L47.4821 48.7668H45.8926C45.7515 48.4533 45.6352 48.1389 45.5516 47.8263ZM52.0469 54.9255C50.8845 54.4627 48.645 52.7555 47.0875 50.7199H47.8867C48.1457 50.7199 48.3941 50.617 48.5772 50.4339L49.9375 49.0736L52.7626 51.8987C52.9463 52.0824 53.1949 52.1848 53.4531 52.1848C53.4723 52.1848 53.4916 52.1842 53.5108 52.183C53.7895 52.1666 54.0477 52.0317 54.2203 51.8124L55.0809 50.7199H57.0063C55.4487 52.7556 53.2093 54.4627 52.0469 54.9255Z" fill="#54CDD5"/>
<path d="M45.7285 58.1709H41.8223C41.2829 58.1709 40.8457 58.6081 40.8457 59.1475C40.8457 59.6868 41.2829 60.124 41.8223 60.124H45.7285C46.2679 60.124 46.7051 59.6868 46.7051 59.1475C46.7051 58.6081 46.2678 58.1709 45.7285 58.1709Z" fill="#54CDD5"/>
<path d="M45.7285 62.0771H41.8223C41.2829 62.0771 40.8457 62.5144 40.8457 63.0537C40.8457 63.5931 41.2829 64.0303 41.8223 64.0303H45.7285C46.2679 64.0303 46.7051 63.5931 46.7051 63.0537C46.7051 62.5144 46.2678 62.0771 45.7285 62.0771Z" fill="#54CDD5"/>
<path d="M62.2715 58.1709H58.3652C57.8259 58.1709 57.3887 58.6081 57.3887 59.1475C57.3887 59.6868 57.8259 60.124 58.3652 60.124H62.2715C62.8108 60.124 63.248 59.6868 63.248 59.1475C63.248 58.6081 62.8108 58.1709 62.2715 58.1709Z" fill="#54CDD5"/>
<path d="M62.2715 62.0771H58.3652C57.8259 62.0771 57.3887 62.5144 57.3887 63.0537C57.3887 63.5931 57.8259 64.0303 58.3652 64.0303H62.2715C62.8108 64.0303 63.248 63.5931 63.248 63.0537C63.248 62.5144 62.8108 62.0771 62.2715 62.0771Z" fill="#54CDD5"/>
<path d="M52.0472 38.3516C52.5865 38.3516 53.0237 37.9144 53.0237 37.375C53.0237 36.8356 52.5865 36.3984 52.0472 36.3984H52.0465C51.5071 36.3984 51.0703 36.8356 51.0703 37.375C51.0703 37.9144 51.5078 38.3516 52.0472 38.3516Z" fill="#54CDD5"/>
</g>
<defs>
<clipPath id="clip0">
<rect width="50" height="50" fill="white" transform="translate(29 28)"/>
</clipPath>
</defs>
</svg>
