<svg width="107" height="107" viewBox="0 0 107 107" fill="none" xmlns="http://www.w3.org/2000/svg">
<circle cx="53.5" cy="53.5" r="53" stroke="#54CDD5" stroke-dasharray="2 2"/>
<circle cx="20" cy="95" r="4" fill="#54CDD5"/>
<circle cx="86" cy="12" r="4" fill="#54CDD5"/>
<g clip-path="url(#clip0)">
<path d="M70.8901 60.7716C70.8097 60.3756 70.4882 60.0643 70.089 59.9988C69.6826 59.932 69.265 60.1386 69.0716 60.502C68.8827 60.8569 68.9324 61.3033 69.1982 61.606C69.4708 61.9167 69.924 62.0233 70.3061 61.8645C70.7299 61.6882 70.9816 61.2227 70.8901 60.7716Z" fill="#54CDD5"/>
<path d="M69.6105 64.4491C69.0913 64.3038 68.5522 64.6073 68.4071 65.1268C66.6104 71.5564 60.6859 76.0469 54 76.0469C45.7526 76.0469 39.043 69.3393 39.043 61.0943C39.043 54.3393 43.5232 48.5704 50.1917 46.7392C50.6157 46.6228 50.9097 46.2372 50.9097 45.7975V41.4583H57.0904V45.7975C57.0904 46.2372 57.3844 46.6228 57.8084 46.7392C62.9237 48.1438 66.8587 51.9138 68.3344 56.8237C68.4897 57.3402 69.0343 57.6331 69.5508 57.4778C70.0673 57.3227 70.3602 56.778 70.2049 56.2615C68.6043 50.9365 64.4605 46.7993 59.0436 45.0688V41.4583H61.4105C61.9498 41.4583 62.3871 41.0211 62.3871 40.4817V35.6646C62.3871 35.1252 61.9498 34.688 61.4105 34.688H59.1998L60.017 29.1183C60.0582 28.8375 59.9753 28.5527 59.7898 28.3381C59.6042 28.1234 59.3345 28 59.0508 28H48.9493C48.6655 28 48.3959 28.1234 48.2104 28.3381C48.0248 28.5527 47.9419 28.8376 47.9831 29.1183L48.8004 34.688H46.5896C46.0502 34.688 45.613 35.1252 45.613 35.6646V40.4818C45.613 41.0212 46.0502 41.4584 46.5896 41.4584H48.9565V45.0688C41.8277 47.3437 37.0898 53.6946 37.0898 61.0943C37.0898 70.4161 44.6757 78 54 78C57.7664 78 61.3309 76.7887 64.3079 74.497C67.1906 72.278 69.3145 69.1369 70.2881 65.6524C70.4333 65.1331 70.13 64.5943 69.6105 64.4491ZM50.0796 29.9531H57.9205L57.2258 34.688H50.7744L50.0796 29.9531ZM47.5661 36.6411H60.434V39.5053H47.5661V36.6411Z" fill="#54CDD5"/>
<path d="M53.3143 52.9999C53.3143 51.3368 51.9612 49.9839 50.2982 49.9839C48.6352 49.9839 47.2822 51.3368 47.2822 52.9999C47.2822 54.663 48.6352 56.0159 50.2982 56.0159C51.9612 56.0159 53.3143 54.663 53.3143 52.9999ZM49.2353 52.9999C49.2353 52.4139 49.7121 51.937 50.2981 51.937C50.8842 51.937 51.361 52.4139 51.361 52.9999C51.361 53.5859 50.8842 54.0628 50.2981 54.0628C49.7121 54.0628 49.2353 53.5859 49.2353 52.9999Z" fill="#54CDD5"/>
<path d="M41.5574 59.1355C41.4577 59.7778 41.4072 60.4368 41.4072 61.0942C41.4072 68.0361 47.0563 73.6837 54 73.6837C60.9437 73.6837 66.5927 68.0361 66.5927 61.0942C66.5927 60.4363 66.5421 59.7772 66.4426 59.1354C66.3687 58.6597 65.9591 58.3087 65.4775 58.3087H64.0156C64.0191 58.237 64.021 58.1651 64.021 58.093C64.021 55.7235 62.0934 53.7959 59.7239 53.7959C57.3545 53.7959 55.4269 55.7235 55.4269 58.093C55.4269 58.1651 55.4287 58.237 55.4322 58.3087H42.5225C42.0409 58.3087 41.6312 58.6597 41.5574 59.1355ZM43.3921 60.2618H56.624C56.9458 60.2618 57.2469 60.1033 57.429 59.8381C57.6111 59.5729 57.651 59.2349 57.5355 58.9346C57.4322 58.6664 57.38 58.3833 57.38 58.093C57.38 56.8005 58.4315 55.749 59.7239 55.749C61.0163 55.749 62.0679 56.8005 62.0679 58.093C62.0679 58.3835 62.0156 58.6667 61.9125 58.9346C61.7969 59.2349 61.8368 59.5729 62.0189 59.8381C62.2011 60.1033 62.5022 60.2618 62.8239 60.2618H64.6079C64.629 60.5381 64.6396 60.8162 64.6396 61.0942C64.6396 66.9591 59.8667 71.7306 54 71.7306C48.1333 71.7306 43.3604 66.9592 43.3604 61.0942C43.3604 60.8163 43.3711 60.5382 43.3921 60.2618Z" fill="#54CDD5"/>
</g>
<defs>
<clipPath id="clip0">
<rect width="50" height="50" fill="white" transform="translate(29 28)"/>
</clipPath>
</defs>
</svg>
