<svg width="107" height="107" viewBox="0 0 107 107" fill="none" xmlns="http://www.w3.org/2000/svg">
<circle cx="53.5" cy="53.5" r="53" stroke="#54CDD5" stroke-dasharray="1 1"/>
<circle cx="20" cy="95" r="4" fill="#54CDD5"/>
<circle cx="86" cy="12" r="4" fill="#54CDD5"/>
<g clip-path="url(#clip0)">
<path d="M51.0703 47.1406V50.0703H48.1406C47.6014 50.0703 47.1641 50.5076 47.1641 51.0469V54.9531C47.1641 55.4924 47.6014 55.9297 48.1406 55.9297H51.0703V58.8594C51.0703 59.3986 51.5076 59.8359 52.0469 59.8359H55.9531C56.4924 59.8359 56.9297 59.3986 56.9297 58.8594V55.9297H59.8594C60.3986 55.9297 60.8359 55.4924 60.8359 54.9531V51.0469C60.8359 50.5076 60.3986 50.0703 59.8594 50.0703H56.9297V47.1406C56.9297 46.6014 56.4924 46.1641 55.9531 46.1641H52.0469C51.5075 46.1641 51.0703 46.6013 51.0703 47.1406ZM53.0234 51.0469V48.1172H54.9766V51.0469C54.9766 51.5861 55.4139 52.0234 55.9531 52.0234H58.8828V53.9766H55.9531C55.4139 53.9766 54.9766 54.4139 54.9766 54.9531V57.8828H53.0234V54.9531C53.0234 54.4139 52.5861 53.9766 52.0469 53.9766H49.1172V52.0234H52.0469C52.5861 52.0234 53.0234 51.5861 53.0234 51.0469Z" fill="#54CDD5"/>
<path d="M67.672 41.2567C67.672 40.7812 67.3294 40.3748 66.8607 40.2943C62.4037 39.5286 58.1657 37.64 54.6047 34.8326C54.2501 34.5532 53.75 34.5532 53.3954 34.8326C49.8344 37.64 45.5964 39.5286 41.1394 40.2943C40.6707 40.3748 40.3281 40.7812 40.3281 41.2567V46.5634C40.3281 56.6982 45.381 66.5436 53.4466 72.0906C53.6133 72.2052 53.8066 72.2626 54 72.2626C54.1934 72.2626 54.3867 72.2052 54.5534 72.0906C62.6104 66.5496 67.672 56.7091 67.672 46.5633V41.2567ZM65.7188 46.5633C65.7188 55.8756 61.2449 64.8242 54.0001 70.09C46.7552 64.8242 42.2813 55.8756 42.2813 46.5633V42.0677C46.512 41.2155 50.534 39.4181 54.0001 36.8302C57.4662 39.4181 61.4882 41.2155 65.7188 42.0677V46.5633Z" fill="#54CDD5"/>
<path d="M66.8906 65.0117C67.43 65.0117 67.8672 64.5745 67.8672 64.0352C67.8672 63.4958 67.43 63.0586 66.8906 63.0586C66.3513 63.0586 65.9141 63.4958 65.9141 64.0352C65.9141 64.5745 66.3513 65.0117 66.8906 65.0117Z" fill="#54CDD5"/>
<path d="M71.5781 35.8134C65.5416 35.8134 59.8662 33.4627 55.5978 29.1941L54.6905 28.2869C54.3091 27.9057 53.6909 27.9057 53.3094 28.2869L52.4021 29.1941C48.1337 33.4626 42.4584 35.8134 36.4219 35.8134C35.8826 35.8134 35.4453 36.2507 35.4453 36.7899V46.5644C35.4453 59.3072 42.3437 71.6659 53.5258 77.8779C53.6732 77.9599 53.8366 78.0009 54 78.0009C54.1634 78.0009 54.3269 77.9599 54.4742 77.8779C58.6944 75.5335 62.3417 72.3194 65.3146 68.3253C65.6367 67.8927 65.5471 67.2809 65.1144 66.9589C64.6817 66.6368 64.0699 66.7266 63.7479 67.1592C61.0536 70.7789 57.7762 73.718 54.0002 75.9017C43.8974 70.0518 37.3984 58.5996 37.3984 46.5643V37.7474C43.3566 37.5136 49.2717 35.0868 53.7833 30.5752L54 30.3585L54.2167 30.5752C58.4848 34.8433 64.3018 37.5002 70.6016 37.7474V46.5643C70.6016 51.0704 69.7121 55.5014 67.9579 59.7339C67.7515 60.2322 67.988 60.8035 68.4861 61.01C68.9846 61.2163 69.5557 60.98 69.7622 60.4817C71.6151 56.0109 72.5547 51.3284 72.5547 46.5643V36.7899C72.5547 36.2506 72.1174 35.8134 71.5781 35.8134Z" fill="#54CDD5"/>
</g>
<defs>
<clipPath id="clip0">
<rect width="50" height="50" fill="white" transform="translate(29 28)"/>
</clipPath>
</defs>
</svg>
