<svg width="107" height="107" viewBox="0 0 107 107" fill="none" xmlns="http://www.w3.org/2000/svg">
<circle cx="53.5" cy="53.5" r="53" stroke="#54CDD5" stroke-dasharray="2 2"/>
<circle cx="20" cy="95" r="4" fill="#54CDD5"/>
<circle cx="86" cy="12" r="4" fill="#54CDD5"/>
<path d="M73.043 45.5781V36.7891H64.2539V33.8594H58.3945V28H49.6055V33.8594H43.7461V36.7891H34.957V45.5781H30.5625V53.6348C30.5625 56.4617 32.8624 58.7617 35.6895 58.7617C35.9382 58.7617 36.1825 58.7431 36.4219 58.7086V78H71.5781V58.7086C71.8175 58.7431 72.0618 58.7617 72.3105 58.7617C75.1376 58.7617 77.4375 56.4617 77.4375 53.6348V45.5781H73.043ZM70.1133 39.7188V45.5781H58.3945V42.6484H64.2539V39.7188H70.1133ZM67.1836 53.6348C67.1836 54.8463 66.1979 55.832 64.9863 55.832C63.7747 55.832 62.7891 54.8463 62.7891 53.6348V48.5078H67.1836V53.6348ZM52.5352 53.6348C52.5352 54.8463 51.5495 55.832 50.3379 55.832C49.1263 55.832 48.1406 54.8463 48.1406 53.6348V48.5078H49.6055H52.5352V53.6348ZM55.4648 48.5078H58.3945H59.8594V53.6348C59.8594 54.8463 58.8737 55.832 57.6621 55.832C56.4505 55.832 55.4648 54.8463 55.4648 53.6348V48.5078ZM46.6758 36.7891H52.5352V30.9297H55.4648V36.7891H61.3242V39.7188H55.4648V45.5781H52.5352V39.7188H46.6758V36.7891ZM37.8867 39.7188H43.7461V42.6484H49.6055V45.5781H37.8867V39.7188ZM45.2109 53.6348C45.2109 54.8463 44.2253 55.832 43.0137 55.832C41.8021 55.832 40.8164 54.8463 40.8164 53.6348V48.5078H45.2109V53.6348ZM33.4922 53.6348V48.5078H37.8867V53.6348C37.8867 54.8463 36.9011 55.832 35.6895 55.832C34.4778 55.832 33.4922 54.8463 33.4922 53.6348ZM49.6055 75.0703V64.6211H58.3945V75.0703H49.6055ZM61.3242 75.0703V61.6914H46.6758V75.0703H39.3516V57.218C40.2829 58.1695 41.5802 58.7617 43.0137 58.7617C44.4472 58.7617 45.7444 58.1695 46.6758 57.218C47.6071 58.1695 48.9044 58.7617 50.3379 58.7617C51.7714 58.7617 53.0687 58.1695 54 57.218C54.9313 58.1695 56.2286 58.7617 57.6621 58.7617C59.0956 58.7617 60.3929 58.1695 61.3242 57.218C62.2556 58.1695 63.5528 58.7617 64.9863 58.7617C66.4198 58.7617 67.7171 58.1695 68.6484 57.218V75.0703H61.3242ZM74.5078 53.6348C74.5078 54.8463 73.5222 55.832 72.3105 55.832C71.0989 55.832 70.1133 54.8463 70.1133 53.6348V48.5078H74.5078V53.6348Z" fill="#54CDD5"/>
</svg>
