<svg width="107" height="107" viewBox="0 0 107 107" fill="none" xmlns="http://www.w3.org/2000/svg">
<circle cx="53.5" cy="53.5" r="53" stroke="#54CDD5" stroke-dasharray="2 2"/>
<circle cx="20" cy="95" r="4" fill="#54CDD5"/>
<circle cx="86" cy="12" r="4" fill="#54CDD5"/>
<g clip-path="url(#clip0)">
<path d="M73.6022 30.895H71.587V29.4648C71.587 28.6559 70.9312 28 70.1222 28C69.3132 28 68.6573 28.6559 68.6573 29.4648V35.1573C68.6573 35.9663 69.3132 36.6222 70.1222 36.6222C70.9312 36.6222 71.587 35.9663 71.587 35.1573V33.8247C73.7422 33.8247 73.6097 33.823 73.6289 33.8277V48.2117C73.6289 53.0403 69.3864 57.0326 64.1037 57.0028C58.9095 56.9774 54.6836 53.0338 54.6836 48.2117V33.8277C54.7026 33.823 54.5595 33.8247 56.7255 33.8247V35.1573C56.7255 35.9663 57.3813 36.6222 58.1903 36.6222C58.9993 36.6222 59.6552 35.9663 59.6552 35.1573V29.4648C59.6552 28.6559 58.9993 28 58.1903 28C57.3813 28 56.7255 28.6559 56.7255 29.4648V30.895H54.7103C53.0802 30.895 51.7539 32.1796 51.7539 33.7586V48.2117C51.7539 54.6899 57.3533 59.9336 64.1562 59.9336C70.9949 59.9336 76.5586 54.6752 76.5586 48.2117V33.7586C76.5586 32.1796 75.2323 30.895 73.6022 30.895Z" fill="#54CDD5"/>
<path d="M59.6084 62.2061C59.9089 64.4482 61.8331 66.1834 64.1562 66.1834C66.4796 66.1834 68.404 64.4478 68.704 62.2051C65.7058 63.0968 62.5079 63.0667 59.6084 62.2061Z" fill="#54CDD5"/>
<path d="M36.0312 66.9648C38.5662 66.9648 40.6211 64.9099 40.6211 62.375C40.6211 59.8401 38.5662 57.7852 36.0312 57.7852C33.4963 57.7852 31.4414 59.8401 31.4414 62.375C31.4414 64.9099 33.4963 66.9648 36.0312 66.9648Z" fill="#54CDD5"/>
<path d="M62.0642 68.8149C60.7373 72.9035 57.6331 75.0703 54.7812 75.0703C50.4935 75.0703 46.8711 70.9708 46.8711 66.1184V45.1591C46.8711 43.7242 46.1162 42.0833 44.9184 41.1686C43.7766 40.2966 42.2852 39.8164 40.7188 39.8164C37.4413 39.8164 34.5664 42.3263 34.5664 45.1875V54.9998C35.5357 54.8075 36.525 54.8071 37.4961 54.9998V45.1875C37.4961 44.0816 38.9336 42.7461 40.7188 42.7461C41.6328 42.7461 42.5153 43.0197 43.1402 43.4969C43.582 43.8343 43.9414 44.5927 43.9414 45.1875V66.1184C43.9414 72.4207 48.6451 78 54.7812 78C59.0918 78 63.4842 74.752 65.0483 69.0585C64.0217 69.1806 63.0271 69.0943 62.0642 68.8149Z" fill="#54CDD5"/>
</g>
<defs>
<clipPath id="clip0">
<rect width="50" height="50" fill="white" transform="translate(29 28)"/>
</clipPath>
</defs>
</svg>
