<svg width="107" height="107" viewBox="0 0 107 107" fill="none" xmlns="http://www.w3.org/2000/svg">
<circle cx="53.5" cy="53.5" r="53" stroke="#54CDD5" stroke-dasharray="2 2"/>
<circle cx="20" cy="95" r="4" fill="#54CDD5"/>
<circle cx="86" cy="12" r="4" fill="#54CDD5"/>
<g clip-path="url(#clip0)">
<path d="M76.2168 51.4863H67.894C68.8621 40.0983 59.8512 30.3926 48.5312 30.3926C37.7617 30.3926 29 39.1104 29 49.8262C29 57.5775 33.6082 64.3145 40.2557 67.4197L37.842 72.3238C37.7429 72.5251 37.6914 72.7464 37.6914 72.9707C37.6914 74.4246 38.8742 75.6074 40.3281 75.6074H56.7344C58.1883 75.6074 59.3711 74.4246 59.3711 72.9707C59.3711 72.7464 59.3196 72.5251 59.2205 72.3238L56.8033 67.4125C59.4075 66.1816 61.6855 64.3939 63.4858 62.2285H69.7227V72.5801H68.8438C68.0348 72.5801 67.3789 73.2359 67.3789 74.0449C67.3789 74.8539 68.0348 75.5098 68.8438 75.5098H73.5312C74.3402 75.5098 74.9961 74.8539 74.9961 74.0449C74.9961 73.2359 74.3402 72.5801 73.5312 72.5801H72.6523V62.2285H76.2168C77.751 62.2285 79 60.9873 79 59.4619V54.2529C79 52.7275 77.751 51.4863 76.2168 51.4863ZM56.1295 72.6777H40.933L43.0072 68.4635C46.6325 69.5347 50.514 69.5166 54.0556 68.4641L56.1295 72.6777ZM54.3694 65.272C54.3193 65.2876 54.2697 65.3062 54.2205 65.3276C50.5916 66.6556 46.5175 66.6799 42.8001 65.3095C42.777 65.3002 42.7538 65.2916 42.7305 65.2837C36.2687 62.8703 31.9297 56.6636 31.9297 49.8262C31.9297 40.7259 39.3771 33.3223 48.5312 33.3223C58.2386 33.3223 65.9305 41.7214 64.9514 51.4863H60.8214C61.8227 44.0229 56.0042 37.4238 48.5312 37.4238C41.6926 37.4238 36.1289 42.9875 36.1289 49.8262C36.1289 56.6226 41.6324 62.2285 48.5312 62.2285H59.4204C57.9239 63.5494 56.215 64.5761 54.3694 65.272ZM39.2045 51.4863C38.1758 45.6768 42.6537 40.3535 48.5312 40.3535C54.4055 40.3535 58.8873 45.6731 57.858 51.4863H39.2045ZM76.0703 59.2988C74.2938 59.2988 49.7707 59.2988 48.5312 59.2988C45.0637 59.2988 41.8945 57.366 40.248 54.416H76.0703V59.2988Z" fill="#54CDD5"/>
</g>
<defs>
<clipPath id="clip0">
<rect width="50" height="50" fill="white" transform="translate(29 28)"/>
</clipPath>
</defs>
</svg>
