<svg width="107" height="107" viewBox="0 0 107 107" fill="none" xmlns="http://www.w3.org/2000/svg">
<circle cx="53.5" cy="53.5" r="53" stroke="#54CDD5" stroke-dasharray="1 1"/>
<circle cx="20" cy="95" r="4" fill="#54CDD5"/>
<circle cx="86" cy="12" r="4" fill="#54CDD5"/>
<path d="M79 46.654C79 48.0757 78.767 49.4783 78.3149 50.8267C76.1911 60.4362 57.8264 72.0612 57.045 72.5558C56.8009 72.7074 56.527 72.7867 56.2477 72.7867C55.969 72.7867 55.6914 72.7164 55.4472 72.5558C55.2372 72.4191 50.063 69.1539 44.8171 64.6658C44.1889 64.1243 44.123 63.1904 44.6501 62.5649C45.1899 61.9447 46.1228 61.8691 46.7521 62.3962C50.6624 65.737 54.6143 68.4379 56.2552 69.5262C61.7708 65.9301 73.9471 56.7811 75.4396 50.0336C75.8295 48.8416 76.0055 47.7577 76.0055 46.6572C76.0055 42.8265 73.92 39.2953 70.5617 37.4454C66.2732 35.0658 60.5326 36.1631 57.395 39.9453C56.8312 40.6283 55.6717 40.6283 55.0973 39.9453C51.9501 36.1604 46.2138 35.0716 41.9311 37.4412C38.5622 39.2953 36.4767 42.8244 36.4767 46.6513C36.4767 47.7444 36.6617 48.8331 37.0064 49.8847C37.2277 50.8687 37.651 51.8309 38.1898 52.8292H46.8893L49.8769 45.9631C50.1327 45.3753 50.7438 45.0057 51.3725 45.0716C52.0129 45.1275 52.5469 45.5881 52.6894 46.2136L54.8888 55.512L57.7338 50.8469C58.0019 50.4038 58.4843 50.1331 59.0055 50.1331H64.4047C65.2264 50.1331 65.8945 50.7985 65.8945 51.6239C65.8945 52.4452 65.2264 53.1143 64.4047 53.1143H59.8422L55.5563 60.1543C55.2829 60.6033 54.801 60.8713 54.2888 60.8713C54.2074 60.8713 54.1287 60.8649 54.0558 60.8538C53.4554 60.7575 52.9825 60.315 52.8384 59.7272L50.8284 51.2575L49.2402 54.9131C49.003 55.4626 48.4652 55.8094 47.8722 55.8094H30.4903C29.6744 55.8088 29 55.1418 29 54.319C29 53.4978 29.6744 52.8287 30.4903 52.8287H34.8608C34.5507 52.0888 34.3002 51.3708 34.1449 50.6761C33.729 49.4698 33.504 48.0651 33.504 46.6508C33.504 41.7351 36.1772 37.2093 40.4966 34.8296C45.4995 32.0622 52.1198 32.9324 56.2541 36.8173C60.3773 32.9319 66.9928 32.0622 72.0042 34.8296C76.3183 37.2061 79 41.7351 79 46.654Z" fill="#54CDD5"/>
</svg>
