<svg width="18" height="18" viewBox="0 0 18 18" fill="none" xmlns="http://www.w3.org/2000/svg">
<path d="M7.1253 9C7.1253 7.96451 7.9645 7.12485 9 7.12485C10.0355 7.12485 10.8751 7.96451 10.8751 9C10.8751 10.0355 10.0355 10.8751 9 10.8751C7.9645 10.8751 7.1253 10.0355 7.1253 9ZM6.11163 9C6.11163 10.5953 7.40475 11.8884 9 11.8884C10.5952 11.8884 11.8884 10.5953 11.8884 9C11.8884 7.40475 10.5952 6.11163 9 6.11163C7.40475 6.11163 6.11163 7.40475 6.11163 9ZM11.3277 5.99711C11.3277 6.13061 11.3672 6.26113 11.4413 6.37216C11.5154 6.48319 11.6208 6.56975 11.7442 6.62089C11.8675 6.67203 12.0032 6.68545 12.1341 6.65946C12.2651 6.63346 12.3854 6.56923 12.4798 6.47486C12.5743 6.3805 12.6386 6.26025 12.6647 6.12933C12.6908 5.9984 12.6775 5.86267 12.6264 5.73931C12.5754 5.61595 12.4889 5.5105 12.3779 5.43628C12.267 5.36207 12.1365 5.32243 12.003 5.32237C11.824 5.32246 11.6522 5.39356 11.5256 5.52007C11.399 5.64659 11.3279 5.81816 11.3277 5.99711ZM6.7275 13.5786C6.17908 13.5536 5.881 13.4623 5.68291 13.3851C5.42029 13.2829 5.23291 13.1611 5.0359 12.9644C4.83889 12.7676 4.71694 12.5804 4.61515 12.3178C4.53793 12.1198 4.44658 11.8216 4.42165 11.2732C4.39438 10.6803 4.38894 10.5022 4.38894 9.00004C4.38894 7.4979 4.39483 7.32029 4.42165 6.72687C4.44663 6.17846 4.53865 5.88087 4.61515 5.68229C4.71739 5.41967 4.83916 5.23229 5.0359 5.03527C5.23264 4.83827 5.41984 4.71632 5.68291 4.61453C5.88091 4.5373 6.17908 4.44596 6.7275 4.42103C7.32042 4.39376 7.49853 4.38831 9 4.38831C10.5015 4.38831 10.6798 4.39421 11.2732 4.42103C11.8216 4.446 12.1192 4.53803 12.3178 4.61453C12.5804 4.71632 12.7678 4.83854 12.9648 5.03527C13.1618 5.23202 13.2833 5.41967 13.3855 5.68229C13.4627 5.88029 13.5541 6.17846 13.579 6.72687C13.6063 7.32029 13.6117 7.4979 13.6117 9.00004C13.6117 10.5022 13.6063 10.6798 13.579 11.2732C13.554 11.8216 13.4622 12.1197 13.3855 12.3178C13.2833 12.5804 13.1615 12.7678 12.9648 12.9644C12.768 13.1609 12.5804 13.2829 12.3178 13.3851C12.1198 13.4623 11.8216 13.5537 11.2732 13.5786C10.6803 13.6059 10.5021 13.6113 9 13.6113C7.49785 13.6113 7.32024 13.6059 6.7275 13.5786ZM6.68092 3.40907C6.08211 3.43634 5.67292 3.53129 5.31558 3.67033C4.9455 3.81393 4.63221 4.00657 4.31914 4.31914C4.00608 4.63171 3.81393 4.9455 3.67033 5.31558C3.53128 5.67315 3.43633 6.08211 3.40907 6.68093C3.38135 7.28069 3.375 7.47243 3.375 9C3.375 10.5276 3.38135 10.7193 3.40907 11.3191C3.43633 11.9179 3.53128 12.3268 3.67033 12.6844C3.81393 13.0543 4.00612 13.3684 4.31914 13.6809C4.63216 13.9933 4.9455 14.1857 5.31558 14.3297C5.6736 14.4687 6.08211 14.5637 6.68092 14.5909C7.281 14.6182 7.47243 14.625 9 14.625C10.5276 14.625 10.7193 14.6187 11.3191 14.5909C11.9179 14.5637 12.3268 14.4687 12.6844 14.3297C13.0543 14.1857 13.3678 13.9934 13.6809 13.6809C13.9939 13.3683 14.1857 13.0543 14.3297 12.6844C14.4687 12.3268 14.5641 11.9179 14.5909 11.3191C14.6182 10.7189 14.6245 10.5276 14.6245 9C14.6245 7.47243 14.6182 7.28069 14.5909 6.68093C14.5637 6.08207 14.4687 5.67292 14.3297 5.31558C14.1857 4.94572 13.9934 4.63221 13.6809 4.31914C13.3683 4.00608 13.0543 3.81393 12.6849 3.67033C12.3268 3.53129 11.9179 3.43589 11.3195 3.40907C10.7198 3.3818 10.528 3.375 9.00045 3.375C7.47288 3.375 7.281 3.38135 6.68092 3.40907Z" fill="#AEAEAE"/>
</svg>
