<svg width="18" height="18" viewBox="0 0 18 18" fill="none" xmlns="http://www.w3.org/2000/svg">
<path d="M8.9998 0C5.34612 0 2.37329 2.97283 2.37329 6.62688C2.37329 7.57999 2.56837 8.49001 2.95282 9.33186C4.60964 12.9574 7.7862 16.7851 8.72053 17.8718C8.79053 17.953 8.89259 17.9998 8.99998 17.9998C9.10738 17.9998 9.20943 17.953 9.27944 17.8718C10.2134 16.7853 13.39 12.9577 15.0473 9.33186C15.432 8.49001 15.6269 7.57999 15.6269 6.62688C15.6265 2.97283 12.6537 0 8.9998 0ZM8.9998 10.0689C7.10185 10.0689 5.5576 8.52464 5.5576 6.62669C5.5576 4.72856 7.10185 3.1843 8.9998 3.1843C10.8977 3.1843 12.442 4.72856 12.442 6.62669C12.4422 8.52464 10.8979 10.0689 8.9998 10.0689Z" fill="#AEAEAE"/>
</svg>
