<svg width="80" height="80" viewBox="0 0 80 80" fill="none" xmlns="http://www.w3.org/2000/svg">
<g clip-path="url(#clip0)">
<path d="M70.137 54.9249C66.3975 50.8619 61.3806 48.2886 55.9391 47.622C55.9147 47.6063 48.0406 43.1328 47.9117 43.0989V41.7641C52.6114 39.0288 55.7778 33.9363 55.7778 28.1177V20.443C56.6355 20.4367 57.3289 19.7402 57.3289 18.8811V16.0063C57.3289 7.18047 50.1486 0 41.3225 0C38.2573 0 35.5461 1.53781 33.915 3.88109C33.7219 3.82719 33.5153 3.80922 33.3041 3.83516C27.2423 4.58203 22.6711 9.75734 22.6711 15.8733V17.9764C22.6711 18.8355 23.3645 19.5322 24.2222 19.5383V28.1175C24.2222 33.9361 27.3886 39.0284 32.0883 41.7638V43.1106C31.9731 43.1444 24.1316 47.6022 24.1103 47.6158C18.6442 48.2733 13.6033 50.855 9.85203 54.9367C5.91703 59.2181 3.75 64.7803 3.75 70.5989V78.4267C3.75 79.2897 4.44953 79.9892 5.3125 79.9892H32.9688C33.8317 79.9892 34.5312 79.2897 34.5312 78.4267C34.5312 77.5638 33.8317 76.8642 32.9688 76.8642H16.5823V68.2947C16.5823 67.4317 15.8828 66.7322 15.0198 66.7322C14.1569 66.7322 13.4573 67.4317 13.4573 68.2947V76.8642H6.875V70.5989C6.875 60.4084 14.3359 51.9964 24.3492 50.7347L32.4055 61.4352C32.6777 61.7967 33.093 62.0224 33.5444 62.0541C33.5809 62.0566 33.6173 62.0578 33.6538 62.0578C34.0666 62.0578 34.4645 61.8942 34.7586 61.6002L40.02 56.3388L45.2812 61.6002C45.5753 61.8942 45.9731 62.0578 46.3861 62.0578C46.4223 62.0578 46.4589 62.0566 46.4955 62.0541C46.9469 62.0224 47.3622 61.7966 47.6344 61.4352L55.6867 50.7398C65.5286 52.0173 73.125 60.5864 73.125 70.5989V76.8642H66.5823V68.2947C66.5823 67.4317 65.8828 66.7322 65.0198 66.7322C64.1569 66.7322 63.4573 67.4317 63.4573 68.2947V76.8642H47.0312C46.1683 76.8642 45.4688 77.5638 45.4688 78.4267C45.4688 79.2897 46.1683 79.9892 47.0312 79.9892H74.6875C75.5505 79.9892 76.25 79.2897 76.25 78.4267V70.5989C76.25 64.7744 74.0791 59.2078 70.137 54.9249ZM27.347 28.1177V19.5389H33.0444C34.5286 19.5389 35.9898 19.1616 37.2822 18.4481C39.1172 19.7058 41.3353 20.4436 43.7231 20.4436H52.6528V28.1177C52.6528 28.3397 52.6467 28.5603 52.6355 28.7795C52.4645 28.7141 52.2798 28.6763 52.0859 28.6752C50.227 28.6656 48.4795 27.9369 47.1659 26.6233C43.2145 22.672 36.7853 22.6719 32.8339 26.6233C31.5203 27.9369 29.7731 28.6656 27.9141 28.6752C27.7202 28.6761 27.5355 28.7141 27.3645 28.7795C27.3531 28.5603 27.347 28.3397 27.347 28.1177ZM40 40.7536C34.6834 40.7536 30.2758 36.7878 29.5802 31.6586C31.6403 31.3119 33.5387 30.3378 35.0438 28.833C37.7767 26.1 42.2234 26.1002 44.9562 28.833C46.4613 30.3378 48.3597 31.3119 50.4198 31.6586C49.7242 36.7875 45.3166 40.7536 40 40.7536ZM41.3225 3.125C48.4253 3.125 54.2039 8.90344 54.2039 16.0063V17.3184C54.0695 17.3194 43.7231 17.3184 43.7231 17.3184C39.1481 17.3184 35.4261 13.5964 35.4261 9.02141C35.4261 5.77016 38.0712 3.125 41.3225 3.125ZM25.7961 15.8733C25.7961 11.7441 28.602 8.19328 32.4938 7.16703C32.3681 7.76578 32.3013 8.38594 32.3013 9.02156C32.3013 11.7095 33.2369 14.1817 34.7964 16.1348C34.2338 16.3178 33.6425 16.4139 33.0445 16.4139H25.7961V15.8733ZM40 43.8955C41.6681 43.8955 43.2763 43.6344 44.7867 43.1523V45.5475L40.0198 51.6031L35.2131 45.4969V43.1523C36.7236 43.6344 38.3317 43.8955 40 43.8955ZM33.8203 58.1191L27.2636 49.4102L32.1309 46.6336L37.9339 54.0055L33.8203 58.1191ZM46.2194 58.1191L42.1058 54.0055L47.9087 46.6336L52.7761 49.4102L46.2194 58.1191Z" fill="#2FA6F8"/>
<path d="M40 76.875C39.5891 76.875 39.1859 77.0422 38.8953 77.3328C38.6047 77.6234 38.4375 78.0266 38.4375 78.4375C38.4375 78.8484 38.6047 79.2516 38.8953 79.5422C39.1859 79.8328 39.5891 80 40 80C40.4109 80 40.8141 79.8328 41.1047 79.5422C41.3953 79.2516 41.5625 78.8484 41.5625 78.4375C41.5625 78.0266 41.3953 77.6234 41.1047 77.3328C40.8141 77.0422 40.4109 76.875 40 76.875Z" fill="#2FA6F8"/>
</g>
<defs>
<clipPath id="clip0">
<rect width="80" height="80" fill="white"/>
</clipPath>
</defs>
</svg>
