<svg width="24" height="24" viewBox="0 0 24 24" fill="none" xmlns="http://www.w3.org/2000/svg">
<path d="M11.9999 0C7.12832 0 3.16455 3.96377 3.16455 8.83584C3.16455 10.1067 3.42466 11.32 3.93726 12.4425C6.14634 17.2765 10.3818 22.3802 11.6275 23.8291C11.7209 23.9374 11.8569 23.9998 12.0001 23.9998C12.1433 23.9998 12.2794 23.9374 12.3727 23.8291C13.618 22.3804 17.8534 17.277 20.0633 12.4425C20.5761 11.32 20.836 10.1067 20.836 8.83584C20.8355 3.96377 16.8717 0 11.9999 0ZM11.9999 13.4252C9.4693 13.4252 7.41029 11.3662 7.41029 8.83559C7.41029 6.30475 9.4693 4.24574 11.9999 4.24574C14.5305 4.24574 16.5895 6.30475 16.5895 8.83559C16.5897 11.3662 14.5307 13.4252 11.9999 13.4252Z" fill="#2FA6F8"/>
</svg>
