<svg width="40" height="40" viewBox="0 0 40 40" fill="none" xmlns="http://www.w3.org/2000/svg">
<g clip-path="url(#clip0)">
<path d="M15.0741 34.188C15.0741 36.0879 13.5284 37.6335 11.6287 37.6335H11.1289C9.2291 37.6335 7.68353 36.0879 7.68353 34.188C7.68353 32.2882 9.22918 30.7425 11.1289 30.7425L26.4632 30.7315C29.0072 30.6044 31.1855 29.2561 32.3517 27.1749C32.2739 27.1786 32.1959 27.1808 32.1173 27.1808C31.3055 27.1808 30.5397 26.9825 29.8636 26.6338C28.9847 27.718 27.6168 28.3754 26.068 28.3754H17.4412V25.7335C22.6908 25.1193 26.7781 20.6449 26.7781 15.2331V5.52007C26.7781 3.67263 25.4521 2.12979 23.702 1.7914V4.28646C24.1254 4.53531 24.4111 4.99445 24.4111 5.52007V15.2331C24.4111 19.7579 20.7299 23.4391 16.2051 23.4391C11.6803 23.4391 7.99908 19.7579 7.99908 15.2331V5.37719C7.99908 4.85149 8.28477 4.39243 8.70817 4.1435V1.64844C6.95801 1.98683 5.63197 3.52967 5.63197 5.37719V15.233C5.63197 20.681 9.77395 25.1793 15.0741 25.7455V28.3754H11.1289C7.92393 28.3754 5.31641 30.9829 5.31641 34.188C5.31641 37.3931 7.92393 40.0007 11.1289 40.0007H11.6287C14.8338 40.0007 17.4412 37.3931 17.4412 34.188V33.0986H15.0741V34.188Z" fill="#54CDD5"/>
<path d="M32.1172 24.8136C33.5347 24.8136 34.6837 23.6645 34.6837 22.2471C34.6837 20.8297 33.5347 19.6807 32.1172 19.6807C30.6998 19.6807 29.5508 20.8297 29.5508 22.2471C29.5508 23.6645 30.6998 24.8136 32.1172 24.8136Z" fill="#54CDD5"/>
<path d="M11.0753 5.52325H12.4199C13.9427 5.52325 15.1816 4.2844 15.1816 2.76159C15.1816 1.23877 13.9426 0 12.4199 0H11.0752V5.52325H11.0753Z" fill="#54CDD5"/>
<path d="M21.3352 0H19.9687C18.4459 0 17.207 1.23885 17.207 2.76167C17.207 4.28448 18.4459 5.52333 19.9687 5.52333H21.3352V0Z" fill="#54CDD5"/>
</g>
<defs>
<clipPath id="clip0">
<rect width="40" height="40" fill="white"/>
</clipPath>
</defs>
</svg>
