<svg width="50" height="50" viewBox="0 0 50 50" fill="none" xmlns="http://www.w3.org/2000/svg">
<g clip-path="url(#clip0)">
<path d="M23.8149 35.5813L22.7424 39.4734C19.8951 38.5663 17.2941 36.9831 15.1557 34.8447C13.0174 32.7063 11.4342 30.1054 10.527 27.258L14.4191 26.1855V14.3555H0V21.565C0 29.1604 2.95781 36.3011 8.3285 41.6719C13.6992 47.0426 20.84 50.0003 28.4354 50.0003H35.645V35.5813H23.8149ZM32.7152 47.0705H28.4354C21.6226 47.0705 15.2176 44.4175 10.4002 39.6002C5.5829 34.7828 2.92978 28.3778 2.92978 21.5649V17.2852H11.4892V23.9536L6.97313 25.1981L7.29872 26.5728C8.2244 30.4804 10.2249 34.0572 13.0841 36.9163C15.9431 39.7753 19.5198 41.7758 23.4275 42.7016L24.8022 43.0272L26.0467 38.5111H32.7152V47.0705Z" fill="white"/>
<path d="M42.6775 7.32333C37.9556 2.60136 31.6776 0.000976562 24.9999 0.000976562C18.3221 0.000976562 12.0441 2.60136 7.32227 7.32333L9.39394 9.3949C13.5624 5.22645 19.1048 2.93076 24.9999 2.93076C30.8951 2.93076 36.4372 5.22645 40.6058 9.3949C44.7743 13.5634 47.0699 19.1057 47.0699 25.0008C47.0699 30.8959 44.7742 36.4382 40.6058 40.6068L42.6775 42.6784C47.3993 37.9566 49.9999 31.6786 49.9999 25.0008C49.9999 18.3231 47.3994 12.0451 42.6775 7.32333Z" fill="white"/>
<path d="M22.6907 25.1105V22.176H28.5551V13.3818H19.7598V16.3116H25.6252V19.2462H19.7608V28.0403H28.5562V25.1105H22.6907Z" fill="white"/>
<path d="M37.3536 13.3809V19.2464H34.4191V13.3809H31.4893V22.1762H37.3536V28.0417H40.2834V13.3809H37.3536Z" fill="white"/>
</g>
<defs>
<clipPath id="clip0">
<rect width="50" height="50" fill="white"/>
</clipPath>
</defs>
</svg>
