<svg width="18" height="18" viewBox="0 0 18 18" fill="none" xmlns="http://www.w3.org/2000/svg">
<path fill-rule="evenodd" clip-rule="evenodd" d="M13.8185 9.0631C13.7026 8.63256 13.3631 8.2931 12.9326 8.17718C12.146 7.96191 8.99981 7.96191 8.99981 7.96191C8.99981 7.96191 5.85358 7.96191 5.06702 8.1689C4.64476 8.28482 4.29702 8.63256 4.18111 9.0631C3.97412 9.84965 3.97412 11.4807 3.97412 11.4807C3.97412 11.4807 3.97412 13.1201 4.18111 13.8984C4.29702 14.3289 4.63649 14.6684 5.06702 14.7843C5.86186 14.9995 8.99981 14.9995 8.99981 14.9995C8.99981 14.9995 12.146 14.9995 12.9326 14.7926C13.3631 14.6766 13.7026 14.3372 13.8185 13.9066C14.0255 13.1201 14.0255 11.489 14.0255 11.489C14.0255 11.489 14.0338 9.84965 13.8185 9.0631ZM11.7661 12.2773V12.4236C11.7661 12.6078 11.7715 12.7487 11.7823 12.8409C11.7932 12.933 11.8148 13.0034 11.8528 13.0413C11.8853 13.0847 11.9395 13.1064 12.0153 13.1064C12.1129 13.1064 12.1779 13.0684 12.2158 12.9926C12.2538 12.9167 12.27 12.7921 12.2754 12.6133L12.8335 12.6458C12.839 12.6729 12.839 12.7054 12.839 12.7487C12.839 13.0143 12.7685 13.2147 12.6222 13.3448C12.4759 13.4748 12.27 13.5399 12.0045 13.5399C11.6848 13.5399 11.4626 13.4369 11.3326 13.2364C11.2025 13.0359 11.1375 12.7271 11.1375 12.3044V11.8005C11.1375 11.367 11.2025 11.0527 11.338 10.8522C11.4735 10.6517 11.701 10.5542 12.0207 10.5542C12.2429 10.5542 12.4163 10.5975 12.5355 10.6788C12.6547 10.7601 12.736 10.8901 12.7848 11.0581C12.8335 11.2315 12.8552 11.4699 12.8552 11.7734V12.2665H11.7661V12.2773ZM11.8473 11.0635C11.8148 11.1069 11.7932 11.1719 11.7823 11.264C11.7715 11.3561 11.7661 11.497 11.7661 11.6867V11.8926H12.2429V11.6867C12.2429 11.5024 12.2375 11.3616 12.2267 11.264C12.2158 11.1665 12.1887 11.1015 12.1562 11.0635C12.1237 11.0256 12.0695 11.0039 12.0045 11.0039C11.9286 10.9985 11.8799 11.0202 11.8473 11.0635ZM8.63409 13.5073V10.6192H7.98385V12.9113C7.96218 12.9654 7.92425 13.0088 7.87006 13.0413C7.81587 13.0792 7.76169 13.0955 7.7075 13.0955C7.64247 13.0955 7.59371 13.0684 7.56661 13.0142C7.53952 12.96 7.52326 12.8679 7.52326 12.7379V10.6192H6.87302V12.7758C6.87302 13.0467 6.91637 13.2418 7.00849 13.3664C7.10061 13.4911 7.24149 13.5561 7.43115 13.5561C7.7075 13.5561 7.91883 13.4206 8.05429 13.1551H8.07055L8.12474 13.5073H8.63409ZM7.06806 10.0774H6.42324V13.502H5.78925V10.0774H5.14443V9.55175H7.06806V10.0774ZM10.5956 10.6842C10.6823 10.7655 10.7474 10.8956 10.7853 11.0798C10.8232 11.2586 10.8395 11.5133 10.8449 11.8438V12.299C10.8449 12.7271 10.7907 13.0468 10.6877 13.2473C10.5848 13.4478 10.4277 13.5507 10.2055 13.5507C10.0809 13.5507 9.97248 13.5182 9.86953 13.464C9.76657 13.4044 9.69071 13.3285 9.64194 13.231H9.62569L9.56066 13.5019H9.02421V9.40542H9.65278V10.9281H9.6582C9.71239 10.8197 9.79367 10.7276 9.89662 10.6626C9.99958 10.5921 10.1134 10.5596 10.2326 10.5596C10.3843 10.5596 10.5089 10.6029 10.5956 10.6842ZM10.1621 12.7487C10.1784 12.6295 10.1892 12.467 10.1892 12.2556H10.1946V11.8763C10.1946 11.6542 10.1892 11.4808 10.173 11.3561C10.1567 11.2369 10.135 11.1502 10.0971 11.096C10.0646 11.0473 10.0104 11.0202 9.94539 11.0202C9.88578 11.0202 9.82618 11.0473 9.77199 11.096C9.7178 11.1502 9.67987 11.2153 9.6582 11.2911V12.9276C9.68529 12.9763 9.72322 13.0143 9.76657 13.0414C9.80992 13.0684 9.85869 13.0793 9.91288 13.0793C9.9779 13.0793 10.0321 13.0522 10.0754 13.0034C10.1134 12.9547 10.1459 12.868 10.1621 12.7487Z" fill="#AEAEAE"/>
<path d="M8.39035 6.86932C8.2603 6.78262 8.16818 6.64715 8.114 6.4575C8.05981 6.27326 8.03271 6.024 8.03271 5.72056V5.30332C8.03271 4.99445 8.06523 4.74519 8.12483 4.55554C8.18986 4.36589 8.28739 4.23042 8.41744 4.14372C8.55291 4.05702 8.72631 4.01367 8.94305 4.01367C9.15438 4.01367 9.32778 4.05702 9.45783 4.14372C9.58788 4.23042 9.67999 4.3713 9.7396 4.55554C9.79921 4.73978 9.83172 4.98903 9.83172 5.30332V5.72056C9.83172 6.02942 9.80462 6.27326 9.74502 6.46292C9.68541 6.64715 9.5933 6.78804 9.46325 6.87474C9.3332 6.96144 9.15438 7.00478 8.93222 7.00478C8.70463 6.99937 8.5204 6.95602 8.39035 6.86932ZM9.12187 6.41415C9.1598 6.32203 9.17606 6.16489 9.17606 5.95356V5.05406C9.17606 4.84815 9.1598 4.69643 9.12187 4.59889C9.08394 4.50135 9.02433 4.458 8.93222 4.458C8.84552 4.458 8.78049 4.50677 8.74798 4.59889C8.71005 4.69643 8.69379 4.84815 8.69379 5.05406V5.95356C8.69379 6.16489 8.71005 6.32203 8.74798 6.41415C8.78049 6.50627 8.84552 6.55503 8.93763 6.55503C9.02433 6.55503 9.08394 6.51168 9.12187 6.41415Z" fill="#AEAEAE"/>
<path d="M6.80823 5.67141L6.07129 3H6.71611L6.97621 4.20837C7.04123 4.50639 7.09 4.76107 7.12251 4.9724H7.13877C7.16044 4.82068 7.20921 4.57142 7.28507 4.21378L7.55601 3H8.20083L7.45305 5.67141V6.95022H6.81365V5.67141H6.80823Z" fill="#AEAEAE"/>
<path d="M11.929 4.06738V6.95554H11.4197L11.3655 6.60333H11.3492C11.2138 6.86884 11.0024 7.00431 10.7261 7.00431C10.5364 7.00431 10.3956 6.93928 10.3034 6.81465C10.2113 6.69002 10.168 6.49495 10.168 6.22402V4.06738H10.8182V6.18609C10.8182 6.31614 10.8345 6.40825 10.8616 6.46244C10.8887 6.51663 10.9374 6.54372 11.0024 6.54372C11.0566 6.54372 11.1108 6.52746 11.165 6.48953C11.2192 6.45702 11.2571 6.41367 11.2788 6.35948V4.06738H11.929Z" fill="#AEAEAE"/>
</svg>
